<?xml version="1.0" encoding="UTF-8" standalone="no"?>
<svg
   width="1000"
   height="1000"
   viewBox="0 0 1000 1000"
   fill="none"
   version="1.1"
   id="svg27"
   sodipodi:docname="EA_Sports_(Print).svg"
   inkscape:version="1.2.2 (732a01da63, 2022-12-09)"
   xmlns:inkscape="http://www.inkscape.org/namespaces/inkscape"
   xmlns:sodipodi="http://sodipodi.sourceforge.net/DTD/sodipodi-0.dtd"
   xmlns="http://www.w3.org/2000/svg"
   xmlns:svg="http://www.w3.org/2000/svg">
  <sodipodi:namedview
     id="namedview29"
     pagecolor="#ffffff"
     bordercolor="#111111"
     borderopacity="1"
     inkscape:showpageshadow="0"
     inkscape:pageopacity="0"
     inkscape:pagecheckerboard="1"
     inkscape:deskcolor="#d1d1d1"
     showgrid="false"
     inkscape:zoom="0.42426407"
     inkscape:cx="439.58471"
     inkscape:cy="464.33345"
     inkscape:window-width="1366"
     inkscape:window-height="705"
     inkscape:window-x="-8"
     inkscape:window-y="-8"
     inkscape:window-maximized="1"
     inkscape:current-layer="svg27" />
  <path
     id="path3648"
     style="display:inline;fill:#000000;stroke-width:29.8473"
     d="M 499.99805 0 C 223.86714 0 3.7895575e-14 223.86714 0 499.99805 C 0 776.12928 223.86714 1000 499.99805 1000 C 776.12928 1000 1000 776.12928 1000 499.99805 C 1000 223.86714 776.18002 3.7895575e-14 499.99805 0 z M 622.70703 229.25391 L 821.54883 543.90625 L 746.52539 543.90625 L 706.99805 481.41797 L 589.42383 481.41797 L 628.95117 418.78125 L 667.4707 418.78125 L 622.6582 347.73242 L 499.19336 543.85547 L 499.24414 543.90625 L 173.76562 543.90625 L 252.91992 418.88281 L 194.8125 418.88281 L 234.33984 356.34375 L 476.43359 356.34375 L 436.85742 418.88281 L 328.29883 418.88281 L 288.2168 481.46875 L 462.93945 481.46875 L 622.70703 229.25391 z M 313.19336 231.41992 L 570.18945 231.41992 L 530.81641 293.75586 L 273.86719 293.90625 L 313.19336 231.41992 z M 289.02344 576.03125 L 350.09961 576.03125 C 358.00609 576.03125 364.85213 578.80138 370.54102 584.43945 C 376.08061 589.97913 378.90234 596.72817 378.90234 604.48242 L 378.90234 632.87891 C 378.90234 640.83609 376.08061 647.58152 370.54102 653.12109 C 364.85213 658.7115 358.00609 661.5293 350.09961 661.5293 L 312.88867 661.5293 L 312.88867 711.07617 L 289.02344 711.07617 L 289.02344 576.03125 z M 432.22461 576.03125 L 464.50195 576.03125 C 472.55774 576.03125 479.20366 578.80216 484.8418 584.3418 C 490.58434 589.7799 493.30469 596.62666 493.30469 604.48242 L 493.30469 682.12305 C 493.30469 690.33097 490.58434 697.12833 484.8418 702.66797 C 479.20366 708.30904 472.55774 711.12695 464.50195 711.12695 L 432.22461 711.12695 C 424.16894 711.12695 417.37157 708.30904 411.78125 702.66797 C 406.19092 697.12833 403.32227 690.33097 403.32227 682.12305 L 403.32227 604.48242 C 403.32227 596.72817 406.19092 589.97913 411.78125 584.43945 C 417.37157 578.80138 424.21967 576.03125 432.22461 576.03125 z M 522.4043 576.08203 L 582.12305 576.08203 C 590.13101 576.08203 596.92716 578.85212 602.4668 584.49023 C 608.05417 590.02987 610.875 596.77499 610.875 604.5293 L 610.875 628.09766 C 610.875 634.18944 609.16184 639.82697 605.83984 644.71289 C 602.31495 649.59592 597.88463 653.07053 592.69727 655.33594 L 616.36328 711.12695 L 590.98438 711.12695 L 590.9375 711.12695 L 568.93164 658.25781 L 546.27344 658.25781 L 546.27344 711.12695 L 522.4043 711.12695 L 522.4043 576.08203 z M 625.87891 576.08203 L 718.7793 576.08203 L 718.7793 597.88477 L 684.13867 597.88477 L 684.13867 711.12695 L 660.2207 711.12695 L 660.2207 597.88477 L 625.87891 597.88477 L 625.87891 576.08203 z M 199.04297 576.23047 L 232.47656 576.23047 C 240.33139 576.23047 247.0296 578.95135 252.56836 584.29102 C 258.00646 589.67839 260.67383 596.32519 260.67383 604.43164 L 260.67383 616.56445 L 239.98047 616.56445 L 236.85742 605.58984 C 235.24597 600.35175 231.62049 597.7832 226.2832 597.7832 L 203.67578 597.7832 C 200.70508 597.7832 198.38782 598.84085 196.67578 600.95703 C 194.81271 603.07024 194.00781 605.73936 194.00781 608.96289 L 194.00781 620.3418 C 194.00781 627.43944 197.18048 630.96484 203.67578 630.96484 L 232.47656 630.96484 C 240.28095 630.96484 246.97755 633.78586 252.61719 639.52539 C 258.25646 645.21424 261.02734 651.91176 261.02734 659.7168 L 261.02734 682.32617 C 261.02734 690.33116 258.25785 697.12833 252.76953 702.66797 C 247.1804 708.30904 240.33139 711.12695 232.47656 711.12695 L 198.58984 711.12695 C 190.53354 711.12695 183.7861 708.40701 178.39844 703.07031 C 172.96026 697.68294 170.3418 691.0361 170.3418 682.87891 L 170.3418 669.48633 L 191.1875 669.48633 L 194.25977 681.92383 C 195.66968 687.05749 199.19343 689.67773 204.93359 689.67773 L 227.84375 689.67773 C 230.71387 689.67773 233.03082 688.6698 234.84375 686.50586 C 236.55549 684.44045 237.41211 681.71962 237.41211 678.59766 L 237.41211 663.8457 C 237.41211 656.59587 234.23846 652.92188 227.84375 652.92188 L 199.04297 652.92188 C 191.18813 652.92187 184.34011 650.15089 178.65039 644.56055 C 173.1117 638.92241 170.3418 632.17498 170.3418 624.2207 L 170.3418 604.73242 C 170.3418 596.92744 173.1117 590.17918 178.65039 584.64258 C 184.34011 579.00144 191.18813 576.23047 199.04297 576.23047 z M 764.95312 576.23047 L 798.28711 576.23047 C 806.29506 576.23047 812.9389 578.95135 818.42773 584.29102 C 823.8659 589.67839 826.58398 596.32519 826.58398 604.43164 L 826.58398 616.56445 L 805.83984 616.56445 L 802.71875 605.58984 C 801.05625 600.35175 797.48128 597.7832 792.19531 597.7832 L 769.53516 597.7832 C 766.66684 597.7832 764.19855 598.84085 762.53906 600.95703 C 760.82583 603.07024 759.91797 605.73936 759.91797 608.96289 L 759.91797 620.3418 C 759.91797 627.43944 763.1926 630.96484 769.53516 630.96484 L 798.28711 630.96484 C 806.14282 630.96484 812.89113 633.78586 818.42773 639.52539 C 824.21811 645.21424 827.03711 651.91176 827.03711 659.7168 L 827.03711 682.32617 C 827.03711 690.33116 824.26904 697.12833 818.68164 702.66797 C 813.04056 708.30904 806.24428 711.12695 798.23633 711.12695 L 764.45117 711.12695 C 756.39249 711.12695 749.74861 708.40701 744.25977 703.07031 C 738.87234 697.68294 736.15234 691.0361 736.15234 682.87891 L 736.15234 669.48633 L 756.94727 669.48633 L 760.07031 681.92383 C 761.52983 687.05749 765.00259 689.67773 770.79297 689.67773 L 793.70508 689.67773 C 796.57637 689.67773 798.98994 688.6698 800.75391 686.50586 C 802.46411 684.44045 803.32227 681.71962 803.32227 678.59766 L 803.32227 663.8457 C 803.32227 656.59587 800.14904 652.92188 793.70508 652.92188 L 764.95312 652.92188 C 756.99886 652.92187 750.15095 650.15089 744.66211 644.56055 C 739.12248 638.92241 736.20313 632.17498 736.20312 624.2207 L 736.20312 604.73242 C 736.20313 596.92744 739.07174 590.17918 744.66211 584.64258 C 750.15095 579.00144 756.99886 576.23047 764.95312 576.23047 z M 312.8418 597.88477 L 312.8418 639.7793 L 345.41992 639.7793 C 348.18975 639.7793 350.55634 638.7217 352.32031 636.65625 C 354.13204 634.54008 355.03906 631.92276 355.03906 628.69922 L 355.03906 609.01367 C 355.03906 605.74247 354.13204 603.1718 352.32031 601.05859 C 350.55634 598.94253 348.18975 597.88477 345.41992 597.88477 L 312.8418 597.88477 z M 436.95898 597.88477 C 433.98926 597.88477 431.67307 598.89163 429.91211 601.00781 C 428.19888 603.12102 427.3418 605.74236 427.3418 608.96289 L 427.3418 678.19922 C 427.3418 681.32124 428.14814 683.93761 429.91211 686.05078 C 431.72384 688.21769 433.98926 689.37695 436.95898 689.37695 L 459.86914 689.37695 C 462.63895 689.37695 464.95478 688.26847 466.71875 686.05078 C 468.58121 683.93761 469.48633 681.32124 469.48633 678.19922 L 469.48633 608.96289 C 469.48633 605.74236 468.58121 603.12102 466.71875 601.00781 C 464.95478 598.89163 462.63895 597.88477 459.86914 597.88477 L 436.95898 597.88477 z M 546.27148 597.88477 L 546.27148 636.50586 L 577.54102 636.50586 C 580.31077 636.50586 582.57689 635.49906 584.33789 633.53516 C 586.05113 631.46976 586.9082 628.8016 586.9082 625.62891 L 586.9082 609.01367 C 586.9082 605.79321 586.10186 603.1718 584.33789 601.05859 C 582.62762 598.94253 580.31077 597.88477 577.54102 597.88477 L 546.27148 597.88477 z " />
  <defs
     id="defs25" />
</svg>
